<?xml version="1.0" encoding="utf-8"?>

<!-- License Agreement at http://iconmonstr.com/license/ -->

<!DOCTYPE svg PUBLIC "-//W3C//DTD SVG 1.1//EN" "http://www.w3.org/Graphics/SVG/1.1/DTD/svg11.dtd">
<svg version="1.1" xmlns="http://www.w3.org/2000/svg" xmlns:xlink="http://www.w3.org/1999/xlink" x="0px" y="0px"
	 width="512px" height="512px" viewBox="0 0 512 512" enable-background="new 0 0 512 512" xml:space="preserve">
<path id="christmas-glass-ball-icon" d="M392.677,400.564L430.553,462H81.447l37.876-61.436H392.677z M176.286,375.613
	C130.607,348.403,100,298.531,100,241.502c0-86.156,69.844-156,156-156s156,69.844,156,156c0,57.029-30.607,106.901-76.286,134.111
	h56.963c33.905-34.548,54.826-81.881,54.826-134.111C447.503,135.738,361.764,50,256,50C150.235,50,64.497,135.738,64.497,241.502
	c0,52.23,20.921,99.563,54.826,134.111H176.286z M313.644,171.919c2.583,0,4.678-2.095,4.678-4.679c0-2.583-2.095-4.678-4.678-4.678
	c-2.585,0-4.678,2.095-4.678,4.678C308.966,169.824,311.059,171.919,313.644,171.919z M325.807,219.513
	c3.442,0,6.236-2.793,6.236-6.237c0-3.445-2.794-6.237-6.236-6.237c-3.445,0-6.237,2.792-6.237,6.237
	C319.569,216.72,322.361,219.513,325.807,219.513z M352.314,254.856c5.167,0,9.356-4.188,9.356-9.355s-4.189-9.355-9.356-9.355
	s-9.355,4.188-9.355,9.355S347.147,254.856,352.314,254.856z M347.637,190.631c2.583,0,4.678-2.096,4.678-4.679
	c0-2.582-2.095-4.678-4.678-4.678s-4.678,2.096-4.678,4.678C342.959,188.535,345.054,190.631,347.637,190.631z M186.396,181.274
	c5.168,0,9.357-4.189,9.357-9.355c0-5.167-4.189-9.356-9.357-9.356c-5.166,0-9.356,4.189-9.356,9.356
	C177.039,177.085,181.229,181.274,186.396,181.274z M242.792,158.702l13.14-7.028l13.14,7.028l-2.623-14.669l10.743-10.326
	l-14.761-2.039l-6.499-13.408l-6.501,13.408l-14.761,2.039l10.744,10.326L242.792,158.702z M299.572,280.737l32.132,42.552H180.158
	l32.131-42.552h-21l26.94-37.455H202.94l52.991-82.233l52.989,82.233h-15.289l26.941,37.455H299.572z M284.473,257.639
	l-20.046-29.95h16.239l-24.734-38.012l-24.736,38.012h16.239l-9.068,13.549C260.297,243.234,260.312,267.229,284.473,257.639z
	 M244.08,375.237h23.702v-41.415H244.08V375.237z M155.008,189.175c-2.583,0-4.679,2.095-4.679,4.679
	c0,2.582,2.096,4.678,4.679,4.678s4.678-2.096,4.678-4.678C159.686,191.27,157.591,189.175,155.008,189.175z M189.515,218.681
	c0-3.444-2.792-6.237-6.237-6.237c-3.444,0-6.238,2.793-6.238,6.237s2.794,6.237,6.238,6.237
	C186.723,224.918,189.515,222.125,189.515,218.681z M164.362,243.647c-2.582,0-4.677,2.095-4.677,4.679
	c0,2.583,2.095,4.678,4.677,4.678c2.584,0,4.679-2.095,4.679-4.678C169.041,245.742,166.946,243.647,164.362,243.647z"/>
</svg>
